{
  "asset": {
    "version": "2.0",
    "generator": "THREE.GLTFExporter"
  },
  "scenes": [
    {
      "nodes": [
        0
      ]
    }
  ],
  "scene": 0,
  "nodes": [
    {
      "children": [
        5
      ],
      "matrix": [
        0.01,
        0,
        0,
        0,
        0,
        0.01,
        0,
        0,
        0,
        0,
        0.01,
        0,
        0,
        0,
        0,
        1
      ]
    },
    {
      "matrix": [
        1,
        -5.551115123125783e-17,
        1.232595164407831e-32,
        0,
        0,
        2.220446049250313e-16,
        1,
        0,
        -5.551115123125783e-17,
        -1,
        2.220446049250313e-16,
        0,
        0,
        0,
        0,
        1
      ],
      "name": "Cone 2",
      "mesh": 0
    },
    {
      "matrix": [
        0.5883484054145521,
        0.39223227027636803,
        -0.7071067811865475,
        0,
        -0.554700196225229,
        0.8320502943378437,
        0,
        0,
        0.588348405414552,
        0.392232270276368,
        0.7071067811865476,
        0,
        0,
        0,
        0,
        1
      ],
      "name": "Directional Light",
      "extensions": {
        "KHR_lights_punctual": {
          "light": 0
        }
      }
    },
    {
      "matrix": [
        0.7071067751031739,
        1.2166747137554168e-8,
        -0.7071067872699209,
        0,
        -0.4082483010005752,
        0.8164965809277258,
        -0.40824827992715096,
        0,
        0.5773502691896256,
        0.5773502691896258,
        0.5773502691896257,
        0,
        601.3502691896256,
        616.3502691896258,
        581.3502691896259,
        1
      ],
      "camera": 0
    },
    {
      "matrix": [
        1,
        0,
        0,
        0,
        0,
        1,
        0,
        0,
        0,
        0,
        1,
        0,
        0,
        1,
        0,
        1
      ],
      "name": "Default Ambient Light"
    },
    {
      "name": "Scene 1",
      "children": [
        1,
        2,
        3,
        4
      ]
    }
  ],
  "bufferViews": [
    {
      "buffer": 0,
      "byteOffset": 0,
      "byteLength": 9108,
      "target": 34962,
      "byteStride": 12
    },
    {
      "buffer": 0,
      "byteOffset": 9108,
      "byteLength": 9108,
      "target": 34962,
      "byteStride": 12
    },
    {
      "buffer": 0,
      "byteOffset": 18216,
      "byteLength": 6072,
      "target": 34962,
      "byteStride": 8
    },
    {
      "buffer": 0,
      "byteOffset": 24288,
      "byteLength": 8256,
      "target": 34963
    }
  ],
  "buffers": [
    {
      "byteLength": 32544,
      "uri": "data:application/octet-stream;base64,"
    }
  ],
  "accessors": [
    {
      "bufferView": 0,
      "componentType": 5126,
      "count": 759,
      "max": [
        45.927364349365234,
        50,
        45.927364349365234
      ],
      "min": [
        -45.927364349365234,
        -50,
        -45.927364349365234
      ],
      "type": "VEC3"
    },
    {
      "bufferView": 1,
      "componentType": 5126,
      "count": 759,
      "max": [
        0.9955402612686157,
        1,
        0.9955402612686157
      ],
      "min": [
        -0.9955402612686157,
        -1,
        -0.9955402612686157
      ],
      "type": "VEC3"
    },
    {
      "bufferView": 2,
      "componentType": 5126,
      "count": 759,
      "max": [
        1,
        1
      ],
      "min": [
        0,
        0
      ],
      "type": "VEC2"
    },
    {
      "bufferView": 3,
      "componentType": 5123,
      "count": 4128,
      "max": [
        757
      ],
      "min": [
        0
      ],
      "type": "SCALAR"
    }
  ],
  "meshes": [
    {
      "primitives": [
        {
          "mode": 4,
          "attributes": {
            "POSITION": 0,
            "NORMAL": 1,
            "TEXCOORD_0": 2
          },
          "extras": {
            "parameters": {
              "width": 100,
              "radialSegments": 32,
              "heightSegments": 8,
              "openEnded": false,
              "thetaStart": 0,
              "thetaLength": 360,
              "cornerRadiusTop": 8,
              "cornerRadiusBottom": 8,
              "cornerSegments": 4,
              "height": 100,
              "depth": 100,
              "type": "ConeGeometry"
            },
            "type": "ConeGeometry"
          },
          "indices": 3
        }
      ]
    }
  ],
  "extensions": {
    "KHR_lights_punctual": {
      "lights": [
        {
          "name": "Directional Light",
          "color": [
            1,
            1,
            1
          ],
          "intensity": 0.7,
          "type": "directional"
        }
      ]
    }
  },
  "cameras": [
    {
      "type": "orthographic",
      "orthographic": {
        "xmag": 2.4484588500503426,
        "ymag": 1.1489473813193776,
        "zfar": 100000,
        "znear": 0
      }
    }
  ],
  "extensionsUsed": [
    "KHR_lights_punctual"
  ]
}